<mxfile host="app.diagrams.net" agent="Mozilla/5.0 (X11; Ubuntu; Linux x86_64; rv:137.0) Gecko/20100101 Firefox/137.0" version="26.2.14">
  <diagram id="C5RBs43oDa-KdzZeNtuy" name="Page-1">
    <mxGraphModel dx="2037" dy="1053" grid="1" gridSize="10" guides="1" tooltips="1" connect="1" arrows="1" fold="1" page="1" pageScale="1" pageWidth="827" pageHeight="1169" math="0" shadow="0">
      <root>
        <mxCell id="WIyWlLk6GJQsqaUBKTNV-0" />
        <mxCell id="WIyWlLk6GJQsqaUBKTNV-1" parent="WIyWlLk6GJQsqaUBKTNV-0" />
        <mxCell id="qDYdRChtb0Kntr4lQntc-50" value="" style="rounded=0;whiteSpace=wrap;html=1;" parent="WIyWlLk6GJQsqaUBKTNV-1" vertex="1">
          <mxGeometry x="827" y="70" width="253" height="500" as="geometry" />
        </mxCell>
        <mxCell id="qDYdRChtb0Kntr4lQntc-46" value="" style="rounded=0;whiteSpace=wrap;html=1;" parent="WIyWlLk6GJQsqaUBKTNV-1" vertex="1">
          <mxGeometry x="20" y="70" width="770" height="790" as="geometry" />
        </mxCell>
        <mxCell id="qDYdRChtb0Kntr4lQntc-13" style="edgeStyle=orthogonalEdgeStyle;rounded=0;orthogonalLoop=1;jettySize=auto;html=1;" parent="WIyWlLk6GJQsqaUBKTNV-1" source="qDYdRChtb0Kntr4lQntc-0" target="qDYdRChtb0Kntr4lQntc-2" edge="1">
          <mxGeometry relative="1" as="geometry" />
        </mxCell>
        <mxCell id="qDYdRChtb0Kntr4lQntc-37" style="edgeStyle=orthogonalEdgeStyle;rounded=0;orthogonalLoop=1;jettySize=auto;html=1;" parent="WIyWlLk6GJQsqaUBKTNV-1" source="qDYdRChtb0Kntr4lQntc-0" target="qDYdRChtb0Kntr4lQntc-1" edge="1">
          <mxGeometry relative="1" as="geometry" />
        </mxCell>
        <mxCell id="qDYdRChtb0Kntr4lQntc-38" style="edgeStyle=orthogonalEdgeStyle;rounded=0;orthogonalLoop=1;jettySize=auto;html=1;" parent="WIyWlLk6GJQsqaUBKTNV-1" source="qDYdRChtb0Kntr4lQntc-0" target="qDYdRChtb0Kntr4lQntc-3" edge="1">
          <mxGeometry relative="1" as="geometry" />
        </mxCell>
        <mxCell id="qDYdRChtb0Kntr4lQntc-0" value="Alice&lt;br&gt;Registry Set" style="rounded=1;whiteSpace=wrap;html=1;" parent="WIyWlLk6GJQsqaUBKTNV-1" vertex="1">
          <mxGeometry x="280" y="210" width="120" height="80" as="geometry" />
        </mxCell>
        <mxCell id="qDYdRChtb0Kntr4lQntc-18" value="" style="edgeStyle=orthogonalEdgeStyle;rounded=0;orthogonalLoop=1;jettySize=auto;html=1;" parent="WIyWlLk6GJQsqaUBKTNV-1" source="qDYdRChtb0Kntr4lQntc-1" target="qDYdRChtb0Kntr4lQntc-6" edge="1">
          <mxGeometry relative="1" as="geometry" />
        </mxCell>
        <mxCell id="qDYdRChtb0Kntr4lQntc-1" value="Agent&lt;br&gt;Registry" style="rounded=1;whiteSpace=wrap;html=1;fontColor=#000000;" parent="WIyWlLk6GJQsqaUBKTNV-1" vertex="1">
          <mxGeometry x="580" y="330" width="120" height="80" as="geometry" />
        </mxCell>
        <mxCell id="qDYdRChtb0Kntr4lQntc-14" value="" style="edgeStyle=orthogonalEdgeStyle;rounded=0;orthogonalLoop=1;jettySize=auto;html=1;" parent="WIyWlLk6GJQsqaUBKTNV-1" source="qDYdRChtb0Kntr4lQntc-2" target="qDYdRChtb0Kntr4lQntc-5" edge="1">
          <mxGeometry relative="1" as="geometry">
            <mxPoint x="340" y="450" as="targetPoint" />
          </mxGeometry>
        </mxCell>
        <mxCell id="qDYdRChtb0Kntr4lQntc-2" value="Data&lt;br&gt;Registry" style="rounded=1;whiteSpace=wrap;html=1;" parent="WIyWlLk6GJQsqaUBKTNV-1" vertex="1">
          <mxGeometry x="280" y="330" width="120" height="80" as="geometry" />
        </mxCell>
        <mxCell id="qDYdRChtb0Kntr4lQntc-32" style="edgeStyle=orthogonalEdgeStyle;rounded=0;orthogonalLoop=1;jettySize=auto;html=1;" parent="WIyWlLk6GJQsqaUBKTNV-1" source="qDYdRChtb0Kntr4lQntc-3" target="qDYdRChtb0Kntr4lQntc-21" edge="1">
          <mxGeometry relative="1" as="geometry" />
        </mxCell>
        <mxCell id="qDYdRChtb0Kntr4lQntc-3" value="Authorization&lt;br&gt;Registry" style="rounded=1;whiteSpace=wrap;html=1;" parent="WIyWlLk6GJQsqaUBKTNV-1" vertex="1">
          <mxGeometry x="40" y="330" width="120" height="80" as="geometry" />
        </mxCell>
        <mxCell id="Jndl4wDwr-UoqR68EMVd-5" style="edgeStyle=orthogonalEdgeStyle;rounded=0;orthogonalLoop=1;jettySize=auto;html=1;exitX=0.5;exitY=1;exitDx=0;exitDy=0;" edge="1" parent="WIyWlLk6GJQsqaUBKTNV-1" source="qDYdRChtb0Kntr4lQntc-8" target="qDYdRChtb0Kntr4lQntc-5">
          <mxGeometry relative="1" as="geometry">
            <Array as="points">
              <mxPoint x="550" y="810" />
              <mxPoint x="340" y="810" />
            </Array>
          </mxGeometry>
        </mxCell>
        <mxCell id="qDYdRChtb0Kntr4lQntc-5" value="Data Registration for Tasks shapetree&lt;br&gt;(LDP container)" style="rounded=1;whiteSpace=wrap;html=1;strokeColor=light-dark(#00cc00, #ededed);fontColor=light-dark(#00cc00, #ededed);" parent="WIyWlLk6GJQsqaUBKTNV-1" vertex="1">
          <mxGeometry x="280" y="700" width="120" height="80" as="geometry" />
        </mxCell>
        <mxCell id="qDYdRChtb0Kntr4lQntc-19" value="" style="edgeStyle=orthogonalEdgeStyle;rounded=0;orthogonalLoop=1;jettySize=auto;html=1;" parent="WIyWlLk6GJQsqaUBKTNV-1" source="qDYdRChtb0Kntr4lQntc-6" target="qDYdRChtb0Kntr4lQntc-7" edge="1">
          <mxGeometry relative="1" as="geometry" />
        </mxCell>
        <mxCell id="Jndl4wDwr-UoqR68EMVd-2" style="edgeStyle=orthogonalEdgeStyle;rounded=0;orthogonalLoop=1;jettySize=auto;html=1;exitX=1;exitY=0.5;exitDx=0;exitDy=0;" edge="1" parent="WIyWlLk6GJQsqaUBKTNV-1" source="qDYdRChtb0Kntr4lQntc-6" target="qDYdRChtb0Kntr4lQntc-49">
          <mxGeometry relative="1" as="geometry" />
        </mxCell>
        <mxCell id="qDYdRChtb0Kntr4lQntc-6" value="Application Registration for TodoList" style="rounded=1;whiteSpace=wrap;html=1;strokeColor=#00CC00;fontColor=#00CC00;" parent="WIyWlLk6GJQsqaUBKTNV-1" vertex="1">
          <mxGeometry x="580" y="450" width="120" height="80" as="geometry" />
        </mxCell>
        <mxCell id="qDYdRChtb0Kntr4lQntc-10" style="edgeStyle=orthogonalEdgeStyle;rounded=0;orthogonalLoop=1;jettySize=auto;html=1;" parent="WIyWlLk6GJQsqaUBKTNV-1" source="qDYdRChtb0Kntr4lQntc-7" target="qDYdRChtb0Kntr4lQntc-8" edge="1">
          <mxGeometry relative="1" as="geometry" />
        </mxCell>
        <mxCell id="Jndl4wDwr-UoqR68EMVd-9" style="edgeStyle=orthogonalEdgeStyle;rounded=0;orthogonalLoop=1;jettySize=auto;html=1;" edge="1" parent="WIyWlLk6GJQsqaUBKTNV-1" source="qDYdRChtb0Kntr4lQntc-7" target="Jndl4wDwr-UoqR68EMVd-8">
          <mxGeometry relative="1" as="geometry" />
        </mxCell>
        <mxCell id="qDYdRChtb0Kntr4lQntc-7" value="Access Grant&lt;br&gt;for Tasks" style="rounded=1;whiteSpace=wrap;html=1;strokeColor=#00CC00;fontColor=#00CC00;" parent="WIyWlLk6GJQsqaUBKTNV-1" vertex="1">
          <mxGeometry x="580" y="570" width="120" height="80" as="geometry" />
        </mxCell>
        <mxCell id="qDYdRChtb0Kntr4lQntc-8" value="Data Grant&amp;nbsp;&lt;br&gt;for Tasks" style="rounded=1;whiteSpace=wrap;html=1;strokeColor=#00CC00;fontColor=#00CC00;" parent="WIyWlLk6GJQsqaUBKTNV-1" vertex="1">
          <mxGeometry x="490" y="700" width="120" height="80" as="geometry" />
        </mxCell>
        <mxCell id="qDYdRChtb0Kntr4lQntc-31" style="edgeStyle=orthogonalEdgeStyle;rounded=0;orthogonalLoop=1;jettySize=auto;html=1;" parent="WIyWlLk6GJQsqaUBKTNV-1" source="qDYdRChtb0Kntr4lQntc-21" target="qDYdRChtb0Kntr4lQntc-22" edge="1">
          <mxGeometry relative="1" as="geometry" />
        </mxCell>
        <mxCell id="qDYdRChtb0Kntr4lQntc-21" value="Access&lt;br&gt;Authorization&lt;br&gt;for TodoList" style="rounded=1;whiteSpace=wrap;html=1;" parent="WIyWlLk6GJQsqaUBKTNV-1" vertex="1">
          <mxGeometry x="40" y="570" width="120" height="80" as="geometry" />
        </mxCell>
        <mxCell id="qDYdRChtb0Kntr4lQntc-35" style="edgeStyle=orthogonalEdgeStyle;rounded=0;orthogonalLoop=1;jettySize=auto;html=1;entryX=0.5;entryY=1;entryDx=0;entryDy=0;" parent="WIyWlLk6GJQsqaUBKTNV-1" source="qDYdRChtb0Kntr4lQntc-22" target="qDYdRChtb0Kntr4lQntc-5" edge="1">
          <mxGeometry relative="1" as="geometry">
            <Array as="points">
              <mxPoint x="100" y="810" />
              <mxPoint x="340" y="810" />
            </Array>
            <mxPoint x="260" y="780" as="targetPoint" />
          </mxGeometry>
        </mxCell>
        <mxCell id="qDYdRChtb0Kntr4lQntc-22" value="Data&amp;nbsp; Authorization for TodoList" style="rounded=1;whiteSpace=wrap;html=1;" parent="WIyWlLk6GJQsqaUBKTNV-1" vertex="1">
          <mxGeometry x="40" y="700" width="120" height="80" as="geometry" />
        </mxCell>
        <mxCell id="qDYdRChtb0Kntr4lQntc-39" value="Alice registers TodoList application" style="text;html=1;align=center;verticalAlign=middle;whiteSpace=wrap;rounded=0;fontSize=24;fontStyle=1" parent="WIyWlLk6GJQsqaUBKTNV-1" vertex="1">
          <mxGeometry x="10" y="20" width="810" height="30" as="geometry" />
        </mxCell>
        <mxCell id="qDYdRChtb0Kntr4lQntc-41" value="" style="edgeStyle=orthogonalEdgeStyle;rounded=0;orthogonalLoop=1;jettySize=auto;html=1;" parent="WIyWlLk6GJQsqaUBKTNV-1" source="qDYdRChtb0Kntr4lQntc-40" target="qDYdRChtb0Kntr4lQntc-0" edge="1">
          <mxGeometry relative="1" as="geometry" />
        </mxCell>
        <mxCell id="qDYdRChtb0Kntr4lQntc-43" style="edgeStyle=orthogonalEdgeStyle;rounded=0;orthogonalLoop=1;jettySize=auto;html=1;" parent="WIyWlLk6GJQsqaUBKTNV-1" source="qDYdRChtb0Kntr4lQntc-40" target="qDYdRChtb0Kntr4lQntc-42" edge="1">
          <mxGeometry relative="1" as="geometry" />
        </mxCell>
        <mxCell id="qDYdRChtb0Kntr4lQntc-40" value="Alice WebID" style="rounded=1;whiteSpace=wrap;html=1;strokeColor=#00CC00;fontColor=#00CC00;" parent="WIyWlLk6GJQsqaUBKTNV-1" vertex="1">
          <mxGeometry x="280" y="90" width="120" height="80" as="geometry" />
        </mxCell>
        <mxCell id="qDYdRChtb0Kntr4lQntc-42" value="Alice &lt;br&gt;Authorization Agent" style="rounded=1;whiteSpace=wrap;html=1;strokeColor=#00CC00;fontColor=#00CC00;" parent="WIyWlLk6GJQsqaUBKTNV-1" vertex="1">
          <mxGeometry x="480" y="90" width="120" height="80" as="geometry" />
        </mxCell>
        <mxCell id="qDYdRChtb0Kntr4lQntc-47" value="Alice Pod" style="text;html=1;align=left;verticalAlign=middle;whiteSpace=wrap;rounded=0;fontStyle=1;fontSize=14;" parent="WIyWlLk6GJQsqaUBKTNV-1" vertex="1">
          <mxGeometry x="30" y="80" width="90" height="30" as="geometry" />
        </mxCell>
        <mxCell id="qDYdRChtb0Kntr4lQntc-48" value="Green resource = visible by TodoList application" style="text;html=1;align=right;verticalAlign=middle;whiteSpace=wrap;rounded=0;fontColor=#00CC00;fontSize=14;" parent="WIyWlLk6GJQsqaUBKTNV-1" vertex="1">
          <mxGeometry x="450" y="870" width="330" height="30" as="geometry" />
        </mxCell>
        <mxCell id="qDYdRChtb0Kntr4lQntc-49" value="Application" style="rounded=1;whiteSpace=wrap;html=1;" parent="WIyWlLk6GJQsqaUBKTNV-1" vertex="1">
          <mxGeometry x="890" y="450" width="120" height="80" as="geometry" />
        </mxCell>
        <mxCell id="qDYdRChtb0Kntr4lQntc-58" value="TodoList&lt;br&gt;Application" style="text;html=1;align=left;verticalAlign=middle;whiteSpace=wrap;rounded=0;fontStyle=1;fontSize=14;" parent="WIyWlLk6GJQsqaUBKTNV-1" vertex="1">
          <mxGeometry x="840" y="90" width="90" height="30" as="geometry" />
        </mxCell>
        <mxCell id="Jndl4wDwr-UoqR68EMVd-21" value="" style="edgeStyle=orthogonalEdgeStyle;rounded=0;orthogonalLoop=1;jettySize=auto;html=1;" edge="1" parent="WIyWlLk6GJQsqaUBKTNV-1" source="qDYdRChtb0Kntr4lQntc-49" target="Jndl4wDwr-UoqR68EMVd-0">
          <mxGeometry relative="1" as="geometry" />
        </mxCell>
        <mxCell id="Jndl4wDwr-UoqR68EMVd-0" value="Access Needs&lt;br&gt;Group" style="rounded=1;whiteSpace=wrap;html=1;" vertex="1" parent="WIyWlLk6GJQsqaUBKTNV-1">
          <mxGeometry x="890" y="320" width="120" height="80" as="geometry" />
        </mxCell>
        <mxCell id="Jndl4wDwr-UoqR68EMVd-20" style="edgeStyle=orthogonalEdgeStyle;rounded=0;orthogonalLoop=1;jettySize=auto;html=1;exitX=0.5;exitY=0;exitDx=0;exitDy=0;" edge="1" parent="WIyWlLk6GJQsqaUBKTNV-1" source="Jndl4wDwr-UoqR68EMVd-0" target="Jndl4wDwr-UoqR68EMVd-1">
          <mxGeometry relative="1" as="geometry" />
        </mxCell>
        <mxCell id="Jndl4wDwr-UoqR68EMVd-1" value="Access Needs&lt;br&gt;for Tasks" style="rounded=1;whiteSpace=wrap;html=1;" vertex="1" parent="WIyWlLk6GJQsqaUBKTNV-1">
          <mxGeometry x="890" y="190" width="120" height="80" as="geometry" />
        </mxCell>
        <mxCell id="Jndl4wDwr-UoqR68EMVd-6" value="" style="rounded=0;whiteSpace=wrap;html=1;" vertex="1" parent="WIyWlLk6GJQsqaUBKTNV-1">
          <mxGeometry x="827" y="620" width="533" height="240" as="geometry" />
        </mxCell>
        <mxCell id="Jndl4wDwr-UoqR68EMVd-7" value="Bob Pod" style="text;html=1;align=left;verticalAlign=middle;whiteSpace=wrap;rounded=0;fontStyle=1;fontSize=14;" vertex="1" parent="WIyWlLk6GJQsqaUBKTNV-1">
          <mxGeometry x="840" y="630" width="90" height="30" as="geometry" />
        </mxCell>
        <mxCell id="Jndl4wDwr-UoqR68EMVd-10" style="edgeStyle=orthogonalEdgeStyle;rounded=0;orthogonalLoop=1;jettySize=auto;html=1;" edge="1" parent="WIyWlLk6GJQsqaUBKTNV-1" source="Jndl4wDwr-UoqR68EMVd-8" target="qDYdRChtb0Kntr4lQntc-5">
          <mxGeometry relative="1" as="geometry">
            <Array as="points">
              <mxPoint x="700" y="810" />
              <mxPoint x="340" y="810" />
            </Array>
          </mxGeometry>
        </mxCell>
        <mxCell id="Jndl4wDwr-UoqR68EMVd-19" value="" style="edgeStyle=orthogonalEdgeStyle;rounded=0;orthogonalLoop=1;jettySize=auto;html=1;" edge="1" parent="WIyWlLk6GJQsqaUBKTNV-1" source="Jndl4wDwr-UoqR68EMVd-8" target="Jndl4wDwr-UoqR68EMVd-13">
          <mxGeometry relative="1" as="geometry" />
        </mxCell>
        <mxCell id="Jndl4wDwr-UoqR68EMVd-8" value="Delegated &lt;br&gt;Data Grant of&lt;br&gt;Bob&#39;s Task" style="rounded=1;whiteSpace=wrap;html=1;strokeColor=#00CC00;fontColor=#00CC00;" vertex="1" parent="WIyWlLk6GJQsqaUBKTNV-1">
          <mxGeometry x="640" y="700" width="120" height="80" as="geometry" />
        </mxCell>
        <mxCell id="Jndl4wDwr-UoqR68EMVd-13" value="Data Grant&lt;br&gt;of Bob&#39;s Task" style="rounded=1;whiteSpace=wrap;html=1;" vertex="1" parent="WIyWlLk6GJQsqaUBKTNV-1">
          <mxGeometry x="870" y="700" width="120" height="80" as="geometry" />
        </mxCell>
        <mxCell id="Jndl4wDwr-UoqR68EMVd-17" value="" style="edgeStyle=orthogonalEdgeStyle;rounded=0;orthogonalLoop=1;jettySize=auto;html=1;" edge="1" parent="WIyWlLk6GJQsqaUBKTNV-1" source="Jndl4wDwr-UoqR68EMVd-14" target="Jndl4wDwr-UoqR68EMVd-16">
          <mxGeometry relative="1" as="geometry" />
        </mxCell>
        <mxCell id="Jndl4wDwr-UoqR68EMVd-14" value="Social Agent &lt;br&gt;Registration&lt;br&gt;for Alice" style="rounded=1;whiteSpace=wrap;html=1;" vertex="1" parent="WIyWlLk6GJQsqaUBKTNV-1">
          <mxGeometry x="1210" y="700" width="120" height="80" as="geometry" />
        </mxCell>
        <mxCell id="Jndl4wDwr-UoqR68EMVd-18" value="" style="edgeStyle=orthogonalEdgeStyle;rounded=0;orthogonalLoop=1;jettySize=auto;html=1;" edge="1" parent="WIyWlLk6GJQsqaUBKTNV-1" source="Jndl4wDwr-UoqR68EMVd-16" target="Jndl4wDwr-UoqR68EMVd-13">
          <mxGeometry relative="1" as="geometry" />
        </mxCell>
        <mxCell id="Jndl4wDwr-UoqR68EMVd-16" value="Access Gramt" style="rounded=1;whiteSpace=wrap;html=1;" vertex="1" parent="WIyWlLk6GJQsqaUBKTNV-1">
          <mxGeometry x="1040" y="700" width="120" height="80" as="geometry" />
        </mxCell>
      </root>
    </mxGraphModel>
  </diagram>
</mxfile>
